<svg id="Layer_1" data-name="Layer 1" xmlns="http://www.w3.org/2000/svg" viewBox="0 0 85.77 99.27"><defs><style>.cls-1{fill:#814de7;}.cls-2{fill:#4287f6;}.cls-3{fill:#1877f2;}.cls-4{fill:#57595a;}.cls-5{fill:#3c3b3e;}.cls-6{fill:#ed1c24;}.cls-7{fill:#fff;}</style></defs><title>lock1</title><path class="cls-1" d="M117.17,94.77h-6.68V72.67a17.49,17.49,0,0,0-35,0v22.1H68.83V72.67a24.17,24.17,0,0,1,48.34,0Z" transform="translate(-58.6 -48.5)"/><rect class="cls-2" y="35.78" width="68.8" height="46.52" rx="2.59"/><path class="cls-3" d="M127.4,128.21V102.88c-21,17.74-51.18,24.4-68.31,26.85a2.58,2.58,0,0,0,2.1,1.07h63.62A2.59,2.59,0,0,0,127.4,128.21Z" transform="translate(-58.6 -48.5)"/><path class="cls-4" d="M98.69,100.54a5.69,5.69,0,1,0-9.07,4.56L87.81,118H98.19L96.38,105.1A5.67,5.67,0,0,0,98.69,100.54Z" transform="translate(-58.6 -48.5)"/><path class="cls-3" d="M60.77,89.19v8.9c.23-3.78,2-12,13.43-12H63.87A3.11,3.11,0,0,0,60.77,89.19Z" transform="translate(-58.6 -48.5)"/><path class="cls-5" d="M87.81,118s7.7-2.18,8.57-12.86L98.19,118Z" transform="translate(-58.6 -48.5)"/><circle class="cls-6" cx="68.8" cy="82.3" r="16.96"/><rect class="cls-7" x="126.36" y="119.94" width="2.08" height="21.73" rx="1.04" transform="translate(-113.77 79.9) rotate(-45)"/><rect class="cls-7" x="126.36" y="119.94" width="2.08" height="21.73" rx="1.04" transform="translate(66.4 264.88) rotate(-135)"/></svg>